<?xml version="1.0" encoding="UTF-8"?>
<svg width="1701px" height="431px" viewBox="0 0 1701 431" version="1.1" xmlns="http://www.w3.org/2000/svg" xmlns:xlink="http://www.w3.org/1999/xlink">
    <title>Group 2</title>
    <defs>
        <polygon id="path-1" points="0.5929 0.299 586.776958 0.299 586.776958 404.211939 0.5929 404.211939"></polygon>
    </defs>
    <g id="HUDCO-updates" stroke="none" stroke-width="1" fill="none" fill-rule="evenodd">
        <g id="Artboard" transform="translate(-364.000000, -1025.000000)">
            <g id="Group-2" transform="translate(364.000000, 1025.000000)">
                <g id="Group-5" transform="translate(0.000000, 23.000000)">
                    <mask id="mask-2" fill="white">
                        <use xlink:href="#path-1"></use>
                    </mask>
                    <g id="Clip-4"></g>
                    <path d="M360.2639,261.4085 C357.7889,259.9995 331.0399,256.6985 303.1429,254.4845 C281.1949,252.7425 249.7049,257.3755 247.2719,259.1035 C244.2699,261.2355 227.8039,268.1925 223.5889,267.7955 C218.0879,267.2785 223.7609,258.1955 218.0179,257.0285 C218.4409,254.4975 205.0229,257.1085 197.8969,259.3975 C195.5519,260.1505 192.5589,259.6835 190.0769,258.9975 C187.4979,258.2835 186.1129,256.5005 187.6859,253.3485 C189.2319,250.2495 179.6789,251.1485 173.4679,251.8235 C167.8459,252.4345 162.2379,253.2935 156.5999,253.6095 C148.9529,254.0365 154.3999,250.7075 152.9669,244.1665 C141.7339,247.0515 114.0559,234.7965 113.3149,234.6145 C111.4689,234.1585 109.6849,233.4425 107.8769,232.8305 C108.5209,231.0785 108.7649,229.0015 109.8769,227.6265 C114.5229,225.3745 123.1509,223.3445 126.8769,220.8925 C126.8769,220.8925 135.2249,211.8495 135.2369,211.8325 C126.5029,214.0345 104.3149,208.2235 96.5559,208.3735 C88.5219,208.5275 65.2589,199.0835 65.2589,199.0835 C64.3539,197.0515 79.9529,194.6855 86.7619,193.3665 C96.3659,191.5045 110.4969,184.8895 114.6559,181.3955 C108.6459,182.4065 86.4209,177.8115 84.1769,177.3655 C75.4389,175.6275 67.8049,173.5865 58.3519,168.3695 C56.4839,168.0185 54.6869,167.2835 51.5889,166.3375 C60.0459,163.5665 68.7739,165.4155 74.0649,158.2005 C73.6299,157.8415 52.1519,149.1365 35.0479,133.3465 C16.2449,115.9885 1.6359,91.3295 0.5929,89.2295 C8.6429,98.3025 53.8379,107.9975 61.6519,110.3295 C61.4939,110.5045 85.7959,116.0905 110.4589,117.2945 C137.6879,118.6245 151.117909,116.1925 166.9839,116.5065 C182.849891,116.8205 201.8819,117.8015 204.7479,117.2615 C217.2729,114.9015 229.8089,112.5885 242.3409,110.2595 C245.4049,109.6905 260.9719,108.7075 265.6449,108.1485 C266.0549,108.0995 336.947593,141.868785 358.8099,154.3875 C388.89782,171.616336 468.4149,226.1485 468.6969,226.2775 C469.4549,226.6235 407.060172,169.317019 376.9499,148.5075 C355.012735,133.3465 337.3839,124.0745 319.0019,114.4455 C308.0469,108.7075 277.5859,97.6005 277.2609,97.3725 C267.8689,91.9505 260.9589,82.5605 249.7249,80.0985 C247.1369,79.5315 244.5209,79.0625 241.9749,78.3495 C240.2849,77.8755 238.6939,77.0475 235.8099,75.8675 C240.2589,74.5265 243.1729,73.8495 245.9069,72.7325 C247.1509,72.2235 262.6489,68.6045 267.3499,68.7795 C269.2879,68.8515 271.2279,69.0685 273.1619,69.0175 C279.8459,68.8395 286.5309,68.6545 293.2049,68.2785 C294.6139,68.1985 303.1849,68.0105 306.0309,67.7935 C312.9509,67.2645 313.1499,65.5635 326.7499,65.6895 C329.0269,65.7105 331.4029,66.9635 333.7109,67.7355 C339.2439,69.5845 344.5179,71.6905 349.5229,75.0255 C358.3059,80.8755 367.7519,85.7365 376.9579,90.9445 C377.5229,91.2645 402.4429,105.0165 422.0559,130.4335 C437.7999,150.8385 467.1599,226.8345 468.6969,226.2775 C468.6969,226.2775 463.9879,151.1925 431.3349,114.6875 C410.5139,91.4115 382.1279,77.8855 386.1149,74.9855 C388.8069,73.0285 396.0939,65.9185 396.5829,61.9165 C396.8929,59.3825 394.9349,53.8875 396.0219,50.8435 C398.5159,43.8625 402.3829,38.1935 408.7259,34.3255 C409.8059,33.6665 411.1149,33.0725 412.3139,32.9855 C416.8969,32.6535 424.8419,29.0635 433.4319,24.6375 C436.3499,23.1335 459.0739,10.0035 462.7479,8.2515 C469.5319,5.0175 476.6109,2.4005 484.2239,0.2985 C483.3759,1.0305 482.3719,1.7145 481.6619,2.4255 C474.3399,9.7485 471.2109,9.3605 467.5189,14.3235 C462.6459,20.8745 453.8459,32.1685 460.3929,32.1685 C459.8519,32.7365 511.7779,21.6025 521.0189,11.2955 C519.8619,11.6285 525.0619,8.4625 528.4009,6.6675 C526.3709,17.6885 521.0739,29.3765 515.4189,33.4125 C505.9769,37.3405 502.6359,41.6295 492.6949,45.3415 C493.4149,45.8365 492.6949,45.3415 508.5799,45.2275 C514.7979,45.1825 521.0119,44.7065 527.2269,44.4255 L527.1119,44.5665 C531.9879,44.3075 555.5169,40.4285 560.4709,42.8005 C553.4879,47.6385 542.8809,61.0865 535.2139,64.2855 C535.2139,64.2855 553.3249,69.9675 565.2139,73.4285 C567.3629,74.0545 569.6269,74.2885 572.6989,74.8645 C573.6909,77.4885 570.8829,81.4655 565.4659,82.8285 C562.1229,83.6685 548.4949,83.7975 544.8479,83.5155 C549.9679,86.6085 559.7149,90.6845 566.8139,95.4945 C577.1379,102.4875 584.4869,110.1715 585.6949,111.4885 C588.0929,114.0985 586.1599,116.3055 583.2609,116.8205 C581.9349,117.0565 566.5429,123.6425 557.7069,132.0125 C550.9369,138.4255 550.9529,166.6695 551.9169,179.4535 C553.4299,182.8345 550.7829,196.7485 547.2569,200.9285 C545.4949,203.0175 542.9649,204.5745 540.5329,205.9225 C539.6329,206.4215 527.0719,220.0455 521.7689,220.4625 C516.0239,220.9155 510.3219,221.8965 504.6159,223.4155 C523.0879,226.3565 560.3219,224.3275 560.3869,224.9445 C558.9979,225.5815 548.8439,239.1715 552.0469,254.9215 C556.3169,264.2645 559.3649,275.0015 556.7889,281.1725 C556.2349,282.4985 552.1179,287.1185 551.1689,293.2105 C550.0989,300.0835 551.3389,303.6105 550.0969,304.4805 C547.3189,306.4255 536.2089,286.2825 521.0319,272.0825 C521.0319,272.0825 499.6199,255.1525 498.8569,255.5145 C498.0949,255.8765 517.1529,274.2395 524.1569,283.0155 C539.2679,301.9505 546.7949,316.9285 546.5589,322.9485 C544.8309,325.0535 539.1219,345.9135 536.7129,347.1535 C534.3569,348.3645 530.4399,335.7655 514.1859,308.8055 C514.1859,308.8055 491.2319,274.6765 489.3199,275.7735 L508.7409,317.4065 C521.2299,342.5945 524.6079,368.1345 522.3969,369.4555 C523.1899,370.1175 513.9849,379.9045 511.8809,383.2065 C502.7939,397.4585 487.3419,391.4685 482.5279,390.7495 C481.4579,390.2065 477.9749,358.6315 474.9559,332.3415 C473.4969,319.6385 471.7149,285.5245 469.8139,286.9195 C467.7909,288.4065 469.3499,323.5875 469.3499,339.8655 C469.3499,379.3415 459.8389,401.3795 459.8389,401.3795 C455.0629,404.5825 442.5259,406.0285 434.3469,400.4595 C423.2119,392.8805 425.3309,381.2495 420.9169,375.0705 C416.1959,368.4615 398.2189,356.0685 396.9439,356.9635 C393.6599,354.9985 416.2219,268.7445 415.7889,268.4785 C414.5869,269.6275 363.3979,263.1935 360.2639,261.4085 Z" id="Fill-3" fill="#231F20" mask="url(#mask-2)"></path>
                </g>
                <g id="Group" transform="translate(617.000000, 0.000000)" fill="#383939" font-family="Times-Bold, Times" font-size="200" font-weight="bold">
                    <text id="WYATT" letter-spacing="6">
                        <tspan x="0" y="194">WYATT</tspan>
                    </text>
                    <text id="A." letter-spacing="0.2">
                        <tspan x="853" y="190">A</tspan>
                        <tspan x="997.633594" y="190" font-family="RaananaBold, Raanana">.</tspan>
                    </text>
                    <text id="HANCOCK" letter-spacing="-2.4">
                        <tspan x="23" y="406">HANCOCK</tspan>
                    </text>
                </g>
            </g>
        </g>
    </g>
</svg>